<?xml version="1.0" encoding="utf-8"?>
<!-- Generator: Adobe Illustrator 22.0.1, SVG Export Plug-In . SVG Version: 6.00 Build 0)  -->
<svg version="1.1" id="Livello_1" xmlns="http://www.w3.org/2000/svg" xmlns:xlink="http://www.w3.org/1999/xlink" x="0px" y="0px"
	 viewBox="0 0 200.8 49.3" style="enable-background:new 0 0 200.8 49.3;" xml:space="preserve">
<style type="text/css">
	.st0{fill:#FFFFFF;}
</style>
<g>
	<defs>
		<rect id="SVGID_1_" y="0" width="226.8" height="226.8"/>
	</defs>
	<clipPath id="SVGID_2_">
		<use xlink:href="#SVGID_1_"  style="overflow:visible;"/>
	</clipPath>
</g>
<g>
	<path class="st0" d="M11.4,25.6h6v6.9c-0.7,0.2-2.4,0.7-5,0.7c-2.3,0-4.6-0.5-6.1-2.3c-1.7-2-2.1-5.3-2.1-7.3
		c0-2.2,0.4-5.2,2.4-7.4c1.3-1.5,3.3-1.9,5.2-1.9c3,0,4.8,1.1,5.6,3.3l2.6-1.7c-0.2-0.5-0.6-1.1-1.1-1.7c-2.2-2.2-5-2.5-6.8-2.5
		c-1.1,0-4.1,0.1-6.4,1.7C1.4,16.3,0.8,21.7,0.8,24c0,3.3,1,6.5,3.2,8.8c1.6,1.7,4.1,2.9,8.4,2.9c3.9,0,6.8-1,8.2-1.4V22.9h-9.2"/>
	<path class="st0" d="M26.9,25.6c0.1-3.6,2.4-4.7,4.4-4.7c3.7,0,4,3.2,3.9,4.7 M38.3,27.7c0.1-2.6,0.2-9-6.9-9
		c-0.9,0-2.8,0.1-4.4,1.2c-2.5,1.8-3.2,4.4-3.2,7.6c0,5.1,2.4,8.2,7.4,8.2c3.2,0,4.8-1.4,5.5-2.2c1.2-1.3,1.3-2.6,1.4-3.4h-3
		c-0.3,2.3-1.8,3.3-3.8,3.3c-3.3,0-4.7-2.4-4.6-5.8H38.3z"/>
	<path class="st0" d="M41.5,21l0-1.9h3l0,2.6c0.4-0.6,1.5-2.9,5.1-2.9c1.4,0,5.8,0.5,5.8,5.5v10.9h-3.1V25c0-1-0.1-2-0.9-2.7
		c-0.8-0.8-1.8-1.1-2.8-1.1c-2.2,0-4.2,1.6-4.2,4.8v9.2h-3"/>
	<polyline class="st0" points="60.4,19.2 64.3,32 68.3,19.2 72.2,19.2 75.9,31.8 79.9,19.2 83,19.2 77.3,35.2 73.9,35.2 70.1,22 
		66,35.2 62.4,35.2 57.1,19.2 	"/>
	<path class="st0" d="M86.8,27.2c0-5,3.1-6.3,5-6.3c2.8,0,4.6,2.1,4.6,6.1c0,4.9-2.6,6.5-4.8,6.5C88.2,33.5,86.8,30.5,86.8,27.2
		 M83.6,27.4c0,4.7,2.6,8.4,7.9,8.4c5.4,0,8.1-3.9,8.1-8.6c0-3.4-1.4-8.4-7.8-8.4C85.5,18.8,83.6,23.4,83.6,27.4"/>
	<path class="st0" d="M113,19.1h2.3v-3.3l3-1v4.3h3.6v2.2h-3.6v9.6c0,0.8,0,2.2,2.1,2.2c0.6,0,1.2-0.1,1.4-0.2v2.3
		c-0.5,0.1-1.4,0.2-2.5,0.2c-2.7,0-4-0.8-4-3.4V21.3H113"/>
	<path class="st0" d="M125.5,12.4l3-1v10.1c1-1.7,3-2.7,5.2-2.7c1.7,0,4.1,0.6,5,2.6c0.3,0.6,0.5,1.4,0.5,3.8v10h-3.1v-9.5
		c0-1.4,0-4.6-3.4-4.6c-2.2,0-3.3,1.4-3.8,2.2c-0.5,0.9-0.5,2.4-0.5,3.4v8.5h-3L125.5,12.4"/>
	<path class="st0" d="M111.1,19c-0.5,0-1.1,0-1.8,0.1c-1.3,0.2-3.2,0.9-3.8,3.2l-0.1-3.1h-3c0.1,1.1,0.2,2.2,0.2,3.3v12.8h3v-8.5
		c0-2.8,0.8-4.9,4.4-4.9c0.3,0,0.6,0,0.9,0l0.3,0.1"/>
	<polyline class="st0" points="170.8,8.8 168.9,17.1 167.1,8.8 168.9,0.4 	"/>
	<polyline class="st0" points="181.2,14.6 173.9,19.2 178.5,11.9 185.8,7.3 	"/>
	<polyline class="st0" points="184.3,26.1 175.9,24.2 184.3,22.3 192.7,24.2 	"/>
	<polyline class="st0" points="178.5,36.4 173.9,29.1 181.1,33.7 185.7,41 	"/>
	<polyline class="st0" points="167,39.5 168.9,31.2 170.8,39.5 168.9,47.9 	"/>
	<polyline class="st0" points="156.7,33.7 164,29.1 159.4,36.4 152.1,41 	"/>
	<polyline class="st0" points="153.5,22.2 161.9,24.2 153.5,26 145.1,24.2 	"/>
	<polyline class="st0" points="159.4,11.9 164,19.2 156.7,14.6 152.1,7.3 	"/>
	<path class="st0" d="M154,20c0.3-1.2,0.8-2.4,1.4-3.5h0l-7.5-1.1L154,20"/>
	<path class="st0" d="M161.3,10.6c1.1-0.6,2.2-1.1,3.5-1.4v0l-4.5-6L161.3,10.6"/>
	<path class="st0" d="M183.9,20L183.9,20l6.1-4.5l-7.5,1.1h0C183,17.6,183.5,18.8,183.9,20"/>
	<path class="st0" d="M176.6,10.7L176.6,10.7l1.1-7.5l-4.5,6l0,0C174.3,9.6,175.5,10.1,176.6,10.7"/>
	<path class="st0" d="M154,28.3L154,28.3l-6.1,4.5l7.5-1l0,0C154.8,30.7,154.4,29.5,154,28.3"/>
	<path class="st0" d="M183.9,28.3c-0.3,1.2-0.8,2.4-1.4,3.5h0l7.5,1.1L183.9,28.3"/>
	<path class="st0" d="M161.3,37.6L161.3,37.6l-1.1,7.5l4.5-6.1C163.6,38.7,162.4,38.2,161.3,37.6"/>
	<path class="st0" d="M176.6,37.6c-1.1,0.6-2.2,1.1-3.5,1.4l0,0l4.5,6L176.6,37.6"/>
	<path class="st0" d="M196.5,31.5c-1.3,0-2.3,1-2.3,2.3c0,1.3,1,2.3,2.3,2.3c1.3,0,2.3-1,2.3-2.3C198.8,32.6,197.8,31.5,196.5,31.5
		 M196.5,36.6c-1.5,0-2.8-1.3-2.8-2.8c0-1.5,1.2-2.8,2.8-2.8c1.5,0,2.8,1.2,2.8,2.8C199.3,35.4,198,36.6,196.5,36.6"/>
	<path class="st0" d="M196,33.6h0.5l0.3-0.1l0.2-0.4l-0.2-0.4l-0.4-0.1H196 M195.3,32.3h1.2c0.3,0,0.7,0,0.9,0.2l0.3,0.6
		c0,0.6-0.5,0.7-0.6,0.8c0.5,0,0.5,0.3,0.5,0.7c0,0.4,0.1,0.5,0.1,0.6l0.1,0.2H197l-0.2-1l-0.3-0.2H196v1.2h-0.7V32.3z"/>
</g>
</svg>
